<svg width="106" height="133" viewBox="0 0 106 133" fill="none" xmlns="http://www.w3.org/2000/svg">
<g filter="url(#filter0_d_3_12)">
<mask id="mask0_3_12" style="mask-type:luminance" maskUnits="userSpaceOnUse" x="0" y="0" width="102" height="132">
<path d="M0.43103 108.408L55.449 131.868L101.268 24.416L46.25 0.955017L0.43103 108.408Z" fill="white"/>
</mask>
<g mask="url(#mask0_3_12)">
<path d="M36.37 61.993C40.663 62.422 42.177 54.526 42.841 51.429C43.505 48.332 46.713 41.141 54.235 41.473C61.757 41.805 68.007 45.179 71.547 45.179C75.087 45.179 78.792 42.137 78.295 40.588C77.797 39.04 71.27 40.809 68.118 39.316C64.965 37.823 59.711 27.425 48.372 26.982C37.034 26.54 31.669 40.146 31.171 45.4C30.673 50.655 32.498 61.606 36.37 61.993Z" fill="#009EE2"/>
</g>
<mask id="mask1_3_12" style="mask-type:luminance" maskUnits="userSpaceOnUse" x="0" y="0" width="102" height="132">
<path d="M0.43103 108.408L55.449 131.868L101.268 24.416L46.25 0.955017L0.43103 108.408Z" fill="white"/>
</mask>
<g mask="url(#mask1_3_12)">
<path d="M51.8567 28.3095C50.9387 29.0625 56.6137 37.3805 63.4717 38.8185C75.1977 41.4735 80.1747 33.8405 87.2547 34.7805C93.1787 35.5675 96.5467 44.1835 96.7677 51.7055C96.8237 72.1145 93.5047 80.9085 93.5597 86.1635C93.6157 91.4175 93.6157 93.2985 94.8877 93.4085C96.1597 93.5195 98.5927 80.6325 100.363 74.6035C102.133 68.5745 106.669 55.9085 106.669 47.9995C106.669 38.2655 101.304 27.5355 90.7397 27.5355C77.8517 27.5355 75.6947 34.1725 67.1777 34.1725C58.6597 34.1725 54.0137 26.5395 51.8567 28.3095Z" fill="#E5007E"/>
</g>
<mask id="mask2_3_12" style="mask-type:luminance" maskUnits="userSpaceOnUse" x="0" y="0" width="102" height="132">
<path d="M0.43103 108.408L55.449 131.868L101.268 24.416L46.25 0.955017L0.43103 108.408Z" fill="white"/>
</mask>
<g mask="url(#mask2_3_12)">
<path d="M52.9444 38.6892C52.1274 39.9392 55.0114 43.7042 54.7154 46.0642C54.7154 52.7742 45.2494 56.6322 43.3574 66.4912C41.9564 73.7922 44.8324 81.8302 50.8054 82.8632C56.7794 83.8952 59.5814 78.5122 59.8024 72.7602C60.0244 67.0072 61.2774 59.1172 63.0474 56.7572C65.5554 52.4792 72.7344 53.9372 75.5314 53.2032C79.7504 52.0972 82.8114 47.9072 84.7294 45.0312C86.6464 42.1552 91.2184 34.7072 87.1624 33.3792C83.1064 32.0522 79.7884 38.9102 74.6994 42.3762C69.6114 45.8422 64.5224 48.4232 61.2044 45.9902C57.8854 43.5562 54.1984 36.7722 52.9444 38.6892Z" fill="#F7D01D"/>
</g>
<mask id="mask3_3_12" style="mask-type:luminance" maskUnits="userSpaceOnUse" x="0" y="0" width="102" height="132">
<path d="M0.43103 108.408L55.449 131.868L101.268 24.416L46.25 0.955017L0.43103 108.408Z" fill="white"/>
</mask>
<g mask="url(#mask3_3_12)">
<path d="M77.9443 49.1612C77.0413 52.6602 83.6963 55.1682 84.1393 58.1012C84.5813 61.0342 81.6633 66.0492 79.2133 68.1142C76.7643 70.1792 70.2543 80.3162 78.3393 82.9912C86.4253 85.6652 88.8583 77.9222 89.2273 76.0052C89.5963 74.0872 90.3333 67.3032 91.9563 65.7542C93.5783 64.2052 99.8473 59.2642 99.9203 54.0282C99.9943 48.7922 95.6433 45.1792 89.3753 44.8102C83.1063 44.4412 78.5343 46.6542 77.9443 49.1612Z" fill="#009EE2"/>
</g>
<mask id="mask4_3_12" style="mask-type:luminance" maskUnits="userSpaceOnUse" x="0" y="0" width="102" height="132">
<path d="M0.43103 108.408L55.449 131.868L101.268 24.416L46.25 0.955017L0.43103 108.408Z" fill="white"/>
</mask>
<g mask="url(#mask4_3_12)">
<path d="M64.3013 51.4842C61.9903 51.1612 58.3283 53.3092 58.0513 61.2182C57.7743 69.1282 60.4293 71.8932 62.1443 73.2212C63.8593 74.5482 67.8963 73.9952 69.7223 75.5972C71.1373 76.8402 73.4273 83.7852 78.3393 80.9092C82.9123 78.2312 78.9583 70.6762 75.6953 68.4092C72.4313 66.1412 68.9453 63.2692 68.9453 60.1682C68.9453 56.6832 69.4453 52.2032 64.3013 51.4842Z" fill="#14AE92"/>
</g>
<mask id="mask5_3_12" style="mask-type:luminance" maskUnits="userSpaceOnUse" x="0" y="0" width="102" height="132">
<path d="M0.43103 108.408L55.449 131.868L101.268 24.416L46.25 0.955017L0.43103 108.408Z" fill="white"/>
</mask>
<g mask="url(#mask5_3_12)">
<path d="M34.1023 50.0461C32.8383 50.2261 30.6733 52.9221 32.5533 62.8221C34.4343 72.7231 41.0163 95.7871 48.4273 96.3401C55.8393 96.8931 57.0003 89.7031 57.0003 86.2741C57.0003 82.8451 52.4093 77.3141 48.8143 75.6541C45.2193 73.9951 40.8933 70.3141 39.6333 65.9201C38.3733 61.5261 36.9463 49.6401 34.1023 50.0461Z" fill="#E5007E"/>
</g>
<mask id="mask6_3_12" style="mask-type:luminance" maskUnits="userSpaceOnUse" x="0" y="0" width="102" height="132">
<path d="M0.43103 108.408L55.449 131.868L101.268 24.416L46.25 0.955017L0.43103 108.408Z" fill="white"/>
</mask>
<g mask="url(#mask6_3_12)">
<path d="M61.8123 94.382C62.9383 96.492 67.5093 88.368 69.8323 89.37C72.1553 90.372 75.0313 103.696 78.9033 103.519C82.7743 103.342 83.3833 98.331 83.2173 93.615C83.0513 88.899 80.5623 78.935 73.3723 78.7C63.3613 77.815 58.8253 88.782 61.8123 94.382Z" fill="#F7D01D"/>
</g>
<mask id="mask7_3_12" style="mask-type:luminance" maskUnits="userSpaceOnUse" x="0" y="0" width="102" height="132">
<path d="M0.43103 108.408L55.449 131.868L101.268 24.416L46.25 0.955017L0.43103 108.408Z" fill="white"/>
</mask>
<g mask="url(#mask7_3_12)">
<path d="M43.7815 88.1595C41.9725 87.8595 40.5185 90.0465 40.7945 92.8295C41.2385 97.2915 43.1175 105.058 44.7215 110.243C46.3255 115.428 50.8055 124.794 55.8945 124.711C60.9825 124.627 59.2125 113.714 59.3785 110.243C59.5445 106.773 60.0975 96.9875 62.3105 94.5625C64.5225 92.1375 66.7345 88.6745 65.1305 88.2525C63.5265 87.8305 59.2835 92.7225 58.0315 98.9115C56.7795 105.1 57.0555 114.634 54.1795 114.843C51.3035 115.052 50.1975 109.7 49.6445 106.647C49.0915 103.595 48.0405 88.8645 43.7815 88.1595Z" fill="#009EE2"/>
</g>
<mask id="mask8_3_12" style="mask-type:luminance" maskUnits="userSpaceOnUse" x="0" y="0" width="102" height="132">
<path d="M0.43103 108.408L55.449 131.868L101.268 24.416L46.25 0.955017L0.43103 108.408Z" fill="white"/>
</mask>
<g mask="url(#mask8_3_12)">
<path d="M79.8432 105.936C78.2502 106.641 77.5752 111.832 78.2942 115.47C79.0132 119.107 80.9982 121.992 83.2412 122.118C85.4852 122.243 93.2282 115.302 94.7772 102.925C96.3252 90.5489 97.9372 81.5819 92.4542 81.3499C86.9702 81.1169 85.8722 86.5339 86.0932 88.9179C86.3142 91.3009 89.3012 93.0989 89.4122 98.1169C89.5222 103.134 87.8632 108.236 85.8162 108.528C83.7702 108.821 82.1112 104.932 79.8432 105.936Z" fill="#F7D01D"/>
</g>
<mask id="mask9_3_12" style="mask-type:luminance" maskUnits="userSpaceOnUse" x="0" y="0" width="102" height="132">
<path d="M0.43103 108.408L55.449 131.868L101.268 24.416L46.25 0.955017L0.43103 108.408Z" fill="white"/>
</mask>
<g mask="url(#mask9_3_12)">
<path d="M52.0779 93.8518C49.3289 93.4788 46.4919 95.8588 46.6019 103.929C46.7129 111.999 52.6859 121.533 54.7879 121.282C56.8899 121.031 53.4609 112.208 53.9589 107.274C54.4559 102.34 55.7779 98.6208 55.4759 97.0728C55.1749 95.5248 54.2349 94.1448 52.0779 93.8518Z" fill="#93C01F"/>
</g>
</g>
<defs>
<filter id="filter0_d_3_12" x="27.0906" y="26.9715" width="78.1774" height="105.74" filterUnits="userSpaceOnUse" color-interpolation-filters="sRGB">
<feFlood flood-opacity="0" result="BackgroundImageFix"/>
<feColorMatrix in="SourceAlpha" type="matrix" values="0 0 0 0 0 0 0 0 0 0 0 0 0 0 0 0 0 0 127 0" result="hardAlpha"/>
<feOffset dy="4"/>
<feGaussianBlur stdDeviation="2"/>
<feComposite in2="hardAlpha" operator="out"/>
<feColorMatrix type="matrix" values="0 0 0 0 0 0 0 0 0 0 0 0 0 0 0 0 0 0 0.25 0"/>
<feBlend mode="normal" in2="BackgroundImageFix" result="effect1_dropShadow_3_12"/>
<feBlend mode="normal" in="SourceGraphic" in2="effect1_dropShadow_3_12" result="shape"/>
</filter>
</defs>
</svg>
